PathFileType	4	(X/Y/Z)	D:\Long Term Storage\D'Arcy Smith\Coord9.trc
DataRate	CameraRate	NumFrames	NumMarkers	Units	OrigDataRate	OrigDataStartFrame	OrigNumFrames
120.00	120.00	      73	4	mm	120.00	2402	      4803
Frame#	Time	M1			M2			M3			M4			
		X1	Y1	Z1	X2	Y2	Z2	X3	Y3	Z3	X4	Y4	Z4	

2402	20.008	1070.54211	325.59564	537.18036	1599.33923	423.02997	251.02762							
2403	20.017	1074.03394	326.40680	530.65973	1600.47156	424.24567	249.21140							
2404	20.025	1077.60742	327.40256	522.09863	1601.81372	424.05444	249.27625							
2405	20.033	1080.86365	329.09024	510.06760	1603.69299	422.45398	251.02206							
2406	20.042	1084.70581	331.24075	497.70276	1606.15503	419.75943	254.40430							
2407	20.050	1087.99927	333.97964	483.37210	1608.71326	415.87250	259.39621							
2408	20.058	1091.48401	337.56439	467.97223	1611.67542	410.89487	265.96265							
2409	20.067	1094.23096	342.22736	451.72928	1614.89746	404.98407	273.89670							
2410	20.075	1097.43079	347.75107	435.81833	1618.26526	398.19958	283.38461							
2411	20.083	1100.12732	354.32883	419.42609	1621.80396	391.07806	294.19525							
2412	20.092	1101.65759	361.67633	402.18976	1625.36487	383.29648	306.25296							
2413	20.100	1103.15234	369.95242	385.60001	1629.32336	375.21112	319.64529							
2414	20.108	1104.24182	379.02728	369.32690	1632.79016	367.00900	333.99561							
2415	20.117	1105.15356	388.62842	353.57794	1636.45190	359.07184	349.49539							
2416	20.125	1106.09460	398.26468	338.48242	1640.33936	351.44565	366.17645							
2417	20.133	1106.12561	409.14676	323.73819	1644.09412	344.26068	384.08362							
2418	20.142	1106.98535	419.22714	310.10794	1647.59302	337.81552	402.85068							
2419	20.150	1107.18896	429.78601	296.82877	1650.89282	332.32117	422.78946							
2420	20.158	1107.73560	440.18393	284.12430	1654.04968	328.68936	443.38284							
2421	20.167	1108.19763	450.96738	272.18832	1656.58179	326.48358	464.89542							
2422	20.175	1109.01965	460.64267	260.46393	1658.86353	325.31479	486.35645							
2423	20.183	1109.28369	470.49240	249.98575	1660.68005	326.59439	508.16788							
2424	20.192	1109.91516	479.22867	240.32336	1661.82593	329.88345	529.53052							
2425	20.200	1110.61462	487.26236	231.50606	1662.50903	334.78546	549.77338							
2426	20.208	1111.18762	494.46075	223.60362	1662.82593	341.03870	568.70227							
2427	20.217	1111.77112	500.78479	216.47702	1662.74146	348.56326	586.01538							
2428	20.225	1112.10364	506.02783	210.53047	1662.43762	356.54999	601.45813							
2429	20.233	1112.38293	510.28503	205.42278	1662.16016	364.92270	614.41028							
2430	20.242	1112.87244	513.54077	201.44897	1661.71033	372.82547	624.98590							
2431	20.250	1112.74866	515.42328	198.43135	1661.22925	379.85956	632.96887							
2432	20.258	1112.19189	515.92035	196.32173	1660.69849	386.35214	638.70709							
2433	20.267	1111.20435	514.97589	195.26561	1660.41077	390.61548	641.39203							
2434	20.275	1110.03015	512.45038	195.19821	1660.00354	393.68668	641.92371							
2435	20.283	1108.34143	508.47342	196.07181	1659.77002	394.75479	639.76056							
2436	20.292	1106.23486	503.09851	198.04205	1659.29541	394.70560	635.67682							
2437	20.300	1103.21643	496.09003	201.03197	1659.08057	392.91226	629.52783							
2438	20.308	1100.56201	487.96326	205.21861	1658.27637	390.06680	621.63239							
2439	20.317	1097.34570	478.43610	210.53456	1657.88391	387.11142	612.08124							
2440	20.325	1093.76770	467.84970	217.01112	1657.22705	383.46191	601.24274							
2441	20.333	1089.94763	456.37402	224.72966	1656.30225	379.56668	589.35541							
2442	20.342	1085.95618	443.99319	233.54805	1655.21802	375.46619	576.26520							
2443	20.350	1081.84375	430.85162	243.57323	1653.83862	372.11920	562.59930							
2444	20.358	1077.52405	417.59088	254.11568	1653.06262	369.05719	547.79126							
2445	20.367	1073.39453	402.71848	268.67139	1651.32678	365.94650	532.53204							
2446	20.375	1069.14941	389.09131	282.68097	1649.34668	363.77948	516.58813							
2447	20.383	1065.16492	375.76785	298.01752	1647.78943	362.24597	500.26889							
2448	20.392	1061.01819	363.35861	314.50461	1645.73584	361.26385	483.64331							
2449	20.400	1056.99365	352.01663	332.44440	1643.61182	360.92813	466.67422							
2450	20.408	1052.82654	342.00266	351.02008	1641.39697	361.39008	449.68512							
2451	20.417	1049.40466	333.33524	370.63409	1639.19250	362.52963	432.62628							
2452	20.425	1045.96411	326.57391	390.67862	1637.04993	364.48648	415.64560							
2453	20.433	1042.62915	320.90564	410.82306	1634.68811	366.99442	399.11252							
2454	20.442	1039.71985	317.10446	431.02448	1632.57544	370.08008	383.14703							
2455	20.450	1036.61707	315.66400	449.82870	1630.32605	373.65369	367.86557							
2456	20.458	1034.70227	315.05536	467.92389	1628.39929	377.65952	353.50412							
2457	20.467	1032.93152	315.86700	484.45447	1626.11353	382.01593	339.85626							
2458	20.475	1031.86182	317.55457	498.67096	1623.83752	386.17645	327.39868							
2459	20.483	1031.57922	319.63950	510.18344	1621.79065	390.23511	316.13516							
2460	20.492	1032.10864	321.38254	519.46301	1619.58215	394.05536	305.85138							
2461	20.500	1032.95508	323.36862	524.74933	1617.63879	397.46912	296.77365							
2462	20.508	1034.43396	324.92621	527.37482	1615.97510	400.58731	288.70300							
2463	20.517	1036.44629	326.13492	526.72955	1614.42798	402.98801	281.72525							
2464	20.525	1038.91846	327.06845	523.30377	1613.18420	404.76617	276.10712							
2465	20.533	1041.75354	327.91669	517.02710	1612.35791	405.87943	271.79715							
2466	20.542	1045.05469	328.75247	509.29272	1611.85168	406.09985	268.90128							
2467	20.550	1048.27905	330.44766	498.51111	1611.78845	405.27881	267.57510							
2468	20.558	1051.89490	332.22058	487.18283	1612.07959	403.59497	267.63721							
2469	20.567	1056.20325	335.09659	474.44440	1612.92004	400.93875	269.36868							
2470	20.575	1059.81580	337.83295	461.40076	1614.23938	397.42422	272.67310							
2471	20.583	1063.77307	341.97733	446.86078	1615.92322	393.02762	277.53854							
2472	20.592	1068.18542	346.51050	432.87143	1617.96912	387.89990	284.03720							
2473	20.600	1072.00806	352.38684	417.77625	1620.28003	382.08807	292.18472							
2474	20.608	1075.56116	359.15988	402.75638	1622.99622	375.77472	301.89111							
